<svg id="visual" viewBox="0 0 1920 1080" width="1920" height="1080" xmlns="http://www.w3.org/2000/svg" xmlns:xlink="http://www.w3.org/1999/xlink" version="1.1"><g stroke-width="1" stroke-linejoin="bevel"><path d="M976.3 546.1L824.7 452.9L932.7 638.1Z" fill="#1a1f1b" stroke="#1a1f1b"></path><path d="M976.3 546.1L1001.3 388.9L824.7 452.9Z" fill="#1a1f1b" stroke="#1a1f1b"></path><path d="M886.7 272.6L766.2 364.6L824.7 452.9Z" fill="#1e5128" stroke="#1e5128"></path><path d="M689.2 717.4L800.7 770.4L932.7 638.1Z" fill="#191a19" stroke="#191a19"></path><path d="M660.2 677.1L932.7 638.1L824.7 452.9Z" fill="#1e3521" stroke="#1e3521"></path><path d="M1001.3 388.9L994.3 349.6L824.7 452.9Z" fill="#1d2f1f" stroke="#1d2f1f"></path><path d="M568.6 501.9L660.2 677.1L824.7 452.9Z" fill="#1c251c" stroke="#1c251c"></path><path d="M660.2 677.1L689.2 717.4L932.7 638.1Z" fill="#1c251c" stroke="#1c251c"></path><path d="M800.7 770.4L1022.3 770.4L932.7 638.1Z" fill="#1d2a1e" stroke="#1d2a1e"></path><path d="M932.7 638.1L1022.3 770.4L976.3 546.1Z" fill="#1c251c" stroke="#1c251c"></path><path d="M976.3 546.1L1194.8 429.9L1001.3 388.9Z" fill="#1d2f1f" stroke="#1d2f1f"></path><path d="M994.3 349.6L886.7 272.6L824.7 452.9Z" fill="#1d2f1f" stroke="#1d2f1f"></path><path d="M557.6 267.6L630.2 395.9L766.2 364.6Z" fill="#1e5128" stroke="#1e5128"></path><path d="M766.2 364.6L630.2 395.9L824.7 452.9Z" fill="#1e5128" stroke="#1e5128"></path><path d="M630.2 395.9L568.6 501.9L824.7 452.9Z" fill="#1e3521" stroke="#1e3521"></path><path d="M708.2 938.7L912.7 890.7L800.7 770.4Z" fill="#1a1f1b" stroke="#1a1f1b"></path><path d="M800.7 770.4L912.7 890.7L1022.3 770.4Z" fill="#1d2f1f" stroke="#1d2f1f"></path><path d="M1280.8 614.1L1194.8 429.9L976.3 546.1Z" fill="#1f4625" stroke="#1f4625"></path><path d="M1001.3 388.9L1194.8 429.9L994.3 349.6Z" fill="#1e5128" stroke="#1e5128"></path><path d="M994.3 349.6L991.3 183.3L886.7 272.6Z" fill="#1d2f1f" stroke="#1d2f1f"></path><path d="M568.6 501.9L499.6 666.1L660.2 677.1Z" fill="#1e3a22" stroke="#1e3a22"></path><path d="M660.2 677.1L461.6 813.4L689.2 717.4Z" fill="#1e3521" stroke="#1e3521"></path><path d="M689.2 717.4L708.2 938.7L800.7 770.4Z" fill="#1d2f1f" stroke="#1d2f1f"></path><path d="M1283.8 331.6L991.3 183.3L994.3 349.6Z" fill="#1a1f1b" stroke="#1a1f1b"></path><path d="M886.7 272.6L739.2 155.3L766.2 364.6Z" fill="#1d2a1e" stroke="#1d2a1e"></path><path d="M1119.3 985.7L1170.8 831.4L1022.3 770.4Z" fill="#1f4625" stroke="#1f4625"></path><path d="M1022.3 770.4L1280.8 614.1L976.3 546.1Z" fill="#1a1f1b" stroke="#1a1f1b"></path><path d="M884.7 128.3L739.2 155.3L886.7 272.6Z" fill="#1e5128" stroke="#1e5128"></path><path d="M630.2 395.9L557.6 267.6L568.6 501.9Z" fill="#1e5128" stroke="#1e5128"></path><path d="M1170.8 831.4L1280.8 614.1L1022.3 770.4Z" fill="#1f4024" stroke="#1f4024"></path><path d="M589.6 967.7L708.2 938.7L689.2 717.4Z" fill="#1e3521" stroke="#1e3521"></path><path d="M912.7 890.7L1119.3 985.7L1022.3 770.4Z" fill="#1e4b27" stroke="#1e4b27"></path><path d="M739.2 155.3L557.6 267.6L766.2 364.6Z" fill="#1f4024" stroke="#1f4024"></path><path d="M328.1 597.1L370.1 724.4L499.6 666.1Z" fill="#1c251c" stroke="#1c251c"></path><path d="M991.3 183.3L884.7 128.3L886.7 272.6Z" fill="#1c251c" stroke="#1c251c"></path><path d="M1383.4 416.9L1283.8 331.6L1194.8 429.9Z" fill="#1e3a22" stroke="#1e3a22"></path><path d="M1194.8 429.9L1283.8 331.6L994.3 349.6Z" fill="#1f4024" stroke="#1f4024"></path><path d="M1026.3 0L838.7 0L884.7 128.3Z" fill="#1f4625" stroke="#1f4625"></path><path d="M1413.4 762.4L1342.4 592.1L1280.8 614.1Z" fill="#1e5128" stroke="#1e5128"></path><path d="M1280.8 614.1L1342.4 592.1L1194.8 429.9Z" fill="#191a19" stroke="#191a19"></path><path d="M370.1 724.4L461.6 813.4L499.6 666.1Z" fill="#1c251c" stroke="#1c251c"></path><path d="M499.6 666.1L461.6 813.4L660.2 677.1Z" fill="#1e3a22" stroke="#1e3a22"></path><path d="M461.6 813.4L589.6 967.7L689.2 717.4Z" fill="#1e3a22" stroke="#1e3a22"></path><path d="M992.3 1080L1119.3 985.7L912.7 890.7Z" fill="#1e4b27" stroke="#1e4b27"></path><path d="M798.7 1080L912.7 890.7L708.2 938.7Z" fill="#1e3a22" stroke="#1e3a22"></path><path d="M1170.8 831.4L1413.4 762.4L1280.8 614.1Z" fill="#1f4625" stroke="#1f4625"></path><path d="M739.2 155.3L508.6 175.3L557.6 267.6Z" fill="#1c251c" stroke="#1c251c"></path><path d="M329.1 513.9L499.6 666.1L568.6 501.9Z" fill="#1f4024" stroke="#1f4024"></path><path d="M702.2 0L508.6 175.3L739.2 155.3Z" fill="#1f4024" stroke="#1f4024"></path><path d="M329.1 513.9L568.6 501.9L393.1 241.6Z" fill="#1e4b27" stroke="#1e4b27"></path><path d="M461.6 813.4L498.6 1080L589.6 967.7Z" fill="#1e3521" stroke="#1e3521"></path><path d="M1342.4 592.1L1383.4 416.9L1194.8 429.9Z" fill="#1c251c" stroke="#1c251c"></path><path d="M682.2 1080L798.7 1080L708.2 938.7Z" fill="#1d2f1f" stroke="#1d2f1f"></path><path d="M393.1 241.6L568.6 501.9L557.6 267.6Z" fill="#1d2a1e" stroke="#1d2a1e"></path><path d="M329.1 513.9L328.1 597.1L499.6 666.1Z" fill="#1e5128" stroke="#1e5128"></path><path d="M798.7 1080L992.3 1080L912.7 890.7Z" fill="#1c251c" stroke="#1c251c"></path><path d="M1026.3 0L884.7 128.3L991.3 183.3Z" fill="#1d2a1e" stroke="#1d2a1e"></path><path d="M884.7 128.3L838.7 0L739.2 155.3Z" fill="#1f4625" stroke="#1f4625"></path><path d="M1347.4 225.3L1201.8 101.3L1283.8 331.6Z" fill="#1e3521" stroke="#1e3521"></path><path d="M1283.8 331.6L1201.8 101.3L991.3 183.3Z" fill="#191a19" stroke="#191a19"></path><path d="M498.6 1080L682.2 1080L589.6 967.7Z" fill="#1d2a1e" stroke="#1d2a1e"></path><path d="M589.6 967.7L682.2 1080L708.2 938.7Z" fill="#1d2a1e" stroke="#1d2a1e"></path><path d="M508.6 175.3L393.1 241.6L557.6 267.6Z" fill="#1e3521" stroke="#1e3521"></path><path d="M1201.8 101.3L1026.3 0L991.3 183.3Z" fill="#1e3521" stroke="#1e3521"></path><path d="M838.7 0L702.2 0L739.2 155.3Z" fill="#1e5128" stroke="#1e5128"></path><path d="M508.6 175.3L367.1 128.3L393.1 241.6Z" fill="#1d2f1f" stroke="#1d2f1f"></path><path d="M1566.9 466.9L1405.4 341.6L1383.4 416.9Z" fill="#1e4b27" stroke="#1e4b27"></path><path d="M1383.4 416.9L1405.4 341.6L1283.8 331.6Z" fill="#1e5128" stroke="#1e5128"></path><path d="M1405.4 341.6L1347.4 225.3L1283.8 331.6Z" fill="#1a1f1b" stroke="#1a1f1b"></path><path d="M1355.4 876.7L1413.4 762.4L1170.8 831.4Z" fill="#1f4024" stroke="#1f4024"></path><path d="M1342.4 592.1L1566.9 466.9L1383.4 416.9Z" fill="#1d2f1f" stroke="#1d2f1f"></path><path d="M1265.8 988.7L1170.8 831.4L1119.3 985.7Z" fill="#1e5128" stroke="#1e5128"></path><path d="M1265.8 988.7L1355.4 876.7L1170.8 831.4Z" fill="#191a19" stroke="#191a19"></path><path d="M1203.8 1080L1265.8 988.7L1119.3 985.7Z" fill="#1d2a1e" stroke="#1d2a1e"></path><path d="M992.3 1080L1203.8 1080L1119.3 985.7Z" fill="#1e4b27" stroke="#1e4b27"></path><path d="M1265.8 988.7L1362.4 1080L1355.4 876.7Z" fill="#1c251c" stroke="#1c251c"></path><path d="M296.1 910.7L498.6 1080L461.6 813.4Z" fill="#1d2a1e" stroke="#1d2a1e"></path><path d="M474.6 0L367.1 128.3L508.6 175.3Z" fill="#1f4024" stroke="#1f4024"></path><path d="M393.1 241.6L229.5 356.6L329.1 513.9Z" fill="#1e3521" stroke="#1e3521"></path><path d="M232.5 172.3L229.5 356.6L393.1 241.6Z" fill="#1e3a22" stroke="#1e3a22"></path><path d="M329.1 513.9L158.5 562.1L328.1 597.1Z" fill="#1f4024" stroke="#1f4024"></path><path d="M199.5 876.7L296.1 910.7L370.1 724.4Z" fill="#1e4b27" stroke="#1e4b27"></path><path d="M370.1 724.4L296.1 910.7L461.6 813.4Z" fill="#1a1f1b" stroke="#1a1f1b"></path><path d="M150.5 810.4L370.1 724.4L328.1 597.1Z" fill="#1d2f1f" stroke="#1d2f1f"></path><path d="M229.5 356.6L203.5 425.9L329.1 513.9Z" fill="#1e3a22" stroke="#1e3a22"></path><path d="M702.2 0L474.6 0L508.6 175.3Z" fill="#1d2a1e" stroke="#1d2a1e"></path><path d="M1391.4 0L1292.8 0L1347.4 225.3Z" fill="#1e4b27" stroke="#1e4b27"></path><path d="M1347.4 225.3L1292.8 0L1201.8 101.3Z" fill="#1d2a1e" stroke="#1d2a1e"></path><path d="M1201.8 101.3L1292.8 0L1026.3 0Z" fill="#1e3521" stroke="#1e3521"></path><path d="M1596.9 677.1L1566.9 466.9L1342.4 592.1Z" fill="#1f4024" stroke="#1f4024"></path><path d="M1525.9 104.3L1391.4 0L1347.4 225.3Z" fill="#1e5128" stroke="#1e5128"></path><path d="M1596.9 677.1L1342.4 592.1L1413.4 762.4Z" fill="#1e3521" stroke="#1e3521"></path><path d="M203.5 425.9L158.5 562.1L329.1 513.9Z" fill="#1a1f1b" stroke="#1a1f1b"></path><path d="M1203.8 1080L1362.4 1080L1265.8 988.7Z" fill="#1e5128" stroke="#1e5128"></path><path d="M1621.9 745.4L1596.9 677.1L1413.4 762.4Z" fill="#1f4625" stroke="#1f4625"></path><path d="M1621.9 745.4L1413.4 762.4L1621.9 995.7Z" fill="#1e5128" stroke="#1e5128"></path><path d="M0 444.9L158.5 562.1L203.5 425.9Z" fill="#1d2f1f" stroke="#1d2f1f"></path><path d="M0 444.9L0 605.1L158.5 562.1Z" fill="#1d2f1f" stroke="#1d2f1f"></path><path d="M367.1 128.3L232.5 172.3L393.1 241.6Z" fill="#1c251c" stroke="#1c251c"></path><path d="M275.1 0L232.5 172.3L367.1 128.3Z" fill="#1a1f1b" stroke="#1a1f1b"></path><path d="M150.5 810.4L199.5 876.7L370.1 724.4Z" fill="#1e5128" stroke="#1e5128"></path><path d="M296.1 910.7L304.1 1080L498.6 1080Z" fill="#1e5128" stroke="#1e5128"></path><path d="M1525.9 104.3L1347.4 225.3L1405.4 341.6Z" fill="#1e5128" stroke="#1e5128"></path><path d="M158.5 562.1L150.5 810.4L328.1 597.1Z" fill="#1f4625" stroke="#1f4625"></path><path d="M1733.5 405.9L1615.9 380.6L1566.9 466.9Z" fill="#1e5128" stroke="#1e5128"></path><path d="M1566.9 466.9L1615.9 380.6L1405.4 341.6Z" fill="#1a1f1b" stroke="#1a1f1b"></path><path d="M193.5 1080L304.1 1080L296.1 910.7Z" fill="#1d2a1e" stroke="#1d2a1e"></path><path d="M193.5 1080L296.1 910.7L199.5 876.7Z" fill="#1f4024" stroke="#1f4024"></path><path d="M1621.9 995.7L1413.4 762.4L1355.4 876.7Z" fill="#1e3a22" stroke="#1e3a22"></path><path d="M1759.5 592.1L1733.5 405.9L1566.9 466.9Z" fill="#1d2a1e" stroke="#1d2a1e"></path><path d="M1615.9 380.6L1525.9 104.3L1405.4 341.6Z" fill="#1e5128" stroke="#1e5128"></path><path d="M474.6 0L275.1 0L367.1 128.3Z" fill="#1f4625" stroke="#1f4625"></path><path d="M275.1 0L243.5 0L232.5 172.3Z" fill="#1e3521" stroke="#1e3521"></path><path d="M0 444.9L203.5 425.9L0 349.6Z" fill="#1e3a22" stroke="#1e3a22"></path><path d="M0 963.7L193.5 1080L199.5 876.7Z" fill="#1e4b27" stroke="#1e4b27"></path><path d="M1714.5 932.7L1707.5 757.4L1621.9 745.4Z" fill="#1f4024" stroke="#1f4024"></path><path d="M1621.9 745.4L1707.5 757.4L1596.9 677.1Z" fill="#1e4b27" stroke="#1e4b27"></path><path d="M1362.4 1080L1553.9 1080L1355.4 876.7Z" fill="#1f4625" stroke="#1f4625"></path><path d="M158.5 562.1L0 730.4L150.5 810.4Z" fill="#1e4b27" stroke="#1e4b27"></path><path d="M150.5 810.4L0 963.7L199.5 876.7Z" fill="#1e5128" stroke="#1e5128"></path><path d="M203.5 425.9L229.5 356.6L0 349.6Z" fill="#1e3a22" stroke="#1e3a22"></path><path d="M1553.9 1080L1621.9 995.7L1355.4 876.7Z" fill="#1e3a22" stroke="#1e3a22"></path><path d="M0 349.6L229.5 356.6L232.5 172.3Z" fill="#1f4024" stroke="#1f4024"></path><path d="M1759.5 592.1L1566.9 466.9L1596.9 677.1Z" fill="#1c251c" stroke="#1c251c"></path><path d="M1615.9 380.6L1723.5 281.6L1525.9 104.3Z" fill="#1e3521" stroke="#1e3521"></path><path d="M0 605.1L0 730.4L158.5 562.1Z" fill="#1f4024" stroke="#1f4024"></path><path d="M0 149.3L0 349.6L232.5 172.3Z" fill="#1d2f1f" stroke="#1d2f1f"></path><path d="M1707.5 757.4L1759.5 592.1L1596.9 677.1Z" fill="#1e3521" stroke="#1e3521"></path><path d="M1775.5 154.3L1723.5 281.6L1920 210.3Z" fill="#1d2a1e" stroke="#1d2a1e"></path><path d="M1733.5 405.9L1723.5 281.6L1615.9 380.6Z" fill="#1e3a22" stroke="#1e3a22"></path><path d="M1920 676.1L1920 531.9L1759.5 592.1Z" fill="#1e4b27" stroke="#1e4b27"></path><path d="M1621.9 995.7L1714.5 932.7L1621.9 745.4Z" fill="#1d2a1e" stroke="#1d2a1e"></path><path d="M1797.5 1080L1714.5 932.7L1621.9 995.7Z" fill="#1d2a1e" stroke="#1d2a1e"></path><path d="M1775.5 154.3L1643.9 0L1525.9 104.3Z" fill="#1e3521" stroke="#1e3521"></path><path d="M1525.9 104.3L1643.9 0L1391.4 0Z" fill="#191a19" stroke="#191a19"></path><path d="M243.5 0L0 149.3L232.5 172.3Z" fill="#1a1f1b" stroke="#1a1f1b"></path><path d="M0 730.4L0 963.7L150.5 810.4Z" fill="#1e5128" stroke="#1e5128"></path><path d="M1920 287.6L1723.5 281.6L1733.5 405.9Z" fill="#1e5128" stroke="#1e5128"></path><path d="M1723.5 281.6L1775.5 154.3L1525.9 104.3Z" fill="#1f4625" stroke="#1f4625"></path><path d="M0 963.7L0 1080L193.5 1080Z" fill="#1c251c" stroke="#1c251c"></path><path d="M243.5 0L0 0L0 149.3Z" fill="#1e3a22" stroke="#1e3a22"></path><path d="M1759.5 592.1L1920 531.9L1733.5 405.9Z" fill="#1e4b27" stroke="#1e4b27"></path><path d="M1920 676.1L1759.5 592.1L1707.5 757.4Z" fill="#1e3a22" stroke="#1e3a22"></path><path d="M1920 0L1770.5 0L1775.5 154.3Z" fill="#1c251c" stroke="#1c251c"></path><path d="M1775.5 154.3L1770.5 0L1643.9 0Z" fill="#1e5128" stroke="#1e5128"></path><path d="M1920 774.4L1920 676.1L1707.5 757.4Z" fill="#1f4024" stroke="#1f4024"></path><path d="M1553.9 1080L1797.5 1080L1621.9 995.7Z" fill="#1f4024" stroke="#1f4024"></path><path d="M1920 885.7L1920 774.4L1707.5 757.4Z" fill="#1c251c" stroke="#1c251c"></path><path d="M1920 885.7L1707.5 757.4L1714.5 932.7Z" fill="#1f4024" stroke="#1f4024"></path><path d="M1920 531.9L1920 287.6L1733.5 405.9Z" fill="#1d2a1e" stroke="#1d2a1e"></path><path d="M1797.5 1080L1920 885.7L1714.5 932.7Z" fill="#1c251c" stroke="#1c251c"></path><path d="M1920 287.6L1920 210.3L1723.5 281.6Z" fill="#1d2a1e" stroke="#1d2a1e"></path><path d="M1797.5 1080L1920 1080L1920 885.7Z" fill="#1d2f1f" stroke="#1d2f1f"></path><path d="M1920 210.3L1920 0L1775.5 154.3Z" fill="#1a1f1b" stroke="#1a1f1b"></path></g></svg>